<!DOCTYPE svg PUBLIC "-//W3C//DTD SVG 1.1//EN" "http://www.w3.org/Graphics/SVG/1.1/DTD/svg11.dtd">

<!-- Uploaded to: SVG Repo, www.svgrepo.com, Transformed by: SVG Repo Mixer Tools -->
<svg width="40px" height="40px" viewBox="0 0 24 24" id="Layer_1" data-name="Layer 1" xmlns="http://www.w3.org/2000/svg" fill="#fff">

<g id="SVGRepo_bgCarrier" stroke-width="0"/>

<g id="SVGRepo_tracerCarrier" stroke-linecap="round" stroke-linejoin="round"/>

<g id="SVGRepo_iconCarrier">

<defs>

<style>.cls-1{fill:none;stroke:#fff;stroke-miterlimit:10;stroke-width:1.91px;}.cls-2{fill:#fff;}</style>

</defs>

<rect class="cls-1" x="1.5" y="1.5" width="21" height="21" rx="1.91"/>

<rect class="cls-1" x="6.27" y="6.27" width="11.45" height="11.45"/>

<line class="cls-1" x1="8.18" y1="4.36" x2="8.18" y2="6.27"/>

<line class="cls-1" x1="8.18" y1="19.64" x2="8.18" y2="17.73"/>

<line class="cls-1" x1="12" y1="4.36" x2="12" y2="6.27"/>

<line class="cls-1" x1="12" y1="19.64" x2="12" y2="17.73"/>

<line class="cls-1" x1="15.82" y1="4.36" x2="15.82" y2="6.27"/>

<line class="cls-1" x1="15.82" y1="19.64" x2="15.82" y2="17.73"/>

<line class="cls-1" x1="4.36" y1="15.82" x2="6.27" y2="15.82"/>

<line class="cls-1" x1="19.64" y1="15.82" x2="17.73" y2="15.82"/>

<line class="cls-1" x1="4.36" y1="12" x2="6.27" y2="12"/>

<line class="cls-1" x1="19.64" y1="12" x2="17.73" y2="12"/>

<line class="cls-1" x1="4.36" y1="8.18" x2="6.27" y2="8.18"/>

<line class="cls-1" x1="19.64" y1="8.18" x2="17.73" y2="8.18"/>

<polygon class="cls-2" points="12 12.96 9.14 12.96 12 8.18 12 12.96"/>

<polygon class="cls-2" points="12 11.04 14.86 11.04 12 15.82 12 11.04"/>

</g>

</svg>